<svg width="25" height="22" viewBox="0 0 25 22" fill="none" xmlns="http://www.w3.org/2000/svg">
<path d="M17.0306 0.649902L24.6473 4.5874C24.8047 4.66907 24.9093 4.79935 24.9611 4.97824C25.013 5.15518 25 5.32532 24.9223 5.48865L22.6945 10.167C22.6167 10.3303 22.4936 10.446 22.325 10.5141C22.1547 10.5821 22.0047 10.5753 21.875 10.4937L19.6473 9.34449C19.4398 9.2356 19.238 9.2424 19.0417 9.3649C18.8473 9.48935 18.75 9.67407 18.75 9.91907V20.3374C18.75 20.6932 18.626 21.0005 18.3778 21.2591C18.1315 21.5196 17.8389 21.6499 17.5 21.6499H7.50003C7.16115 21.6499 6.86855 21.5196 6.62226 21.2591C6.37411 21.0005 6.25003 20.6932 6.25003 20.3374V9.91907C6.25003 9.67407 6.15281 9.48935 5.95837 9.3649C5.76207 9.2424 5.56022 9.2356 5.35281 9.34449L3.12503 10.4937C2.96948 10.5753 2.813 10.5821 2.65559 10.5141C2.50003 10.446 2.38337 10.3303 2.30559 10.167L0.0778125 5.48865C3.47234e-05 5.32532 -0.0129282 5.15518 0.0389236 4.97824C0.0907755 4.79935 0.195405 4.66907 0.352812 4.5874L7.96948 0.649902C8.36022 1.22351 8.96577 1.68824 9.78615 2.04407C10.6065 2.3999 11.5111 2.57782 12.5 2.57782C13.4889 2.57782 14.3936 2.3999 15.2139 2.04407C16.0343 1.68824 16.6398 1.22351 17.0306 0.649902Z" fill="#588157"/>
</svg>
