<svg width="23" height="17" viewBox="0 0 23 17" fill="none" xmlns="http://www.w3.org/2000/svg">
<path d="M1.875 0.274902H13.125C13.6454 0.274902 14.088 0.46643 14.4528 0.849486C14.8176 1.23254 15 1.69726 15 2.24365V14.0562C15 14.6025 14.8176 15.0673 14.4528 15.4503C14.088 15.8334 13.6454 16.0249 13.125 16.0249H1.875C1.35463 16.0249 0.912037 15.8334 0.547222 15.4503C0.182407 15.0673 0 14.6025 0 14.0562V2.24365C0 1.69726 0.182407 1.23254 0.547222 0.849486C0.912037 0.46643 1.35463 0.274902 1.875 0.274902ZM16.25 4.90949L20.5472 1.8324C20.9639 1.53296 21.3935 1.49893 21.8361 1.73032C22.2787 1.96365 22.5 2.35351 22.5 2.8999V13.3999C22.5 13.9463 22.2722 14.3362 21.8167 14.5695C21.3611 14.8009 20.938 14.7668 20.5472 14.4674L16.25 11.3903V4.90949Z" fill="#588157"/>
</svg>
