<svg width="17" height="22" viewBox="0 0 17 22" fill="none" xmlns="http://www.w3.org/2000/svg">
<path d="M8.125 1.26532C8.54167 3.8631 8.75 5.62671 8.75 6.55615C8.75 7.59449 8.50926 8.4899 8.02778 9.2424C7.5463 9.9949 6.88889 10.5355 6.05556 10.8641L6.56389 20.6232C6.58981 20.8974 6.50463 21.1375 6.30833 21.3437C6.11389 21.5478 5.88611 21.6499 5.625 21.6499H3.125C2.86389 21.6499 2.63611 21.5478 2.44167 21.3437C2.24537 21.1375 2.16111 20.8974 2.18889 20.6232L2.69444 10.8641C1.86111 10.5355 1.2037 9.9949 0.722222 9.2424C0.240741 8.4899 0 7.59449 0 6.55615C0 5.62671 0.208333 3.8631 0.625 1.26532C0.676852 0.855041 0.989815 0.649902 1.56389 0.649902C2.13611 0.649902 2.44815 0.868652 2.5 1.30615V7.13074C2.52593 7.18518 2.63056 7.2124 2.81389 7.2124C2.99537 7.2124 3.09907 7.18518 3.125 7.13074C3.15093 6.82935 3.18981 6.19351 3.24167 5.22324C3.29352 4.25296 3.33889 3.36435 3.37778 2.5574C3.41852 1.75046 3.43889 1.33337 3.43889 1.30615C3.49074 0.868652 3.80278 0.649902 4.375 0.649902C4.94722 0.649902 5.26019 0.868652 5.31389 1.30615C5.33981 1.52587 5.44352 3.4674 5.625 7.13074C5.65093 7.18518 5.75556 7.2124 5.93889 7.2124C6.12037 7.2124 6.22407 7.18518 6.25 7.13074V1.30615C6.30185 0.868652 6.61481 0.649902 7.18889 0.649902C7.76111 0.649902 8.07315 0.855041 8.125 1.26532ZM12.1889 20.5824L12.7722 12.9962C11.6278 12.0395 10.8343 10.973 10.3917 9.79657C9.94907 8.62018 9.85093 7.51282 10.0972 6.47449C10.3454 5.43615 10.7426 4.4649 11.2889 3.56074C11.8352 2.65851 12.4796 1.94782 13.2222 1.42865C13.9648 0.909486 14.662 0.649902 15.3139 0.649902C15.5731 0.649902 15.7944 0.74518 15.9778 0.935736C16.1593 1.12824 16.25 1.36157 16.25 1.63574V20.667C16.25 20.9392 16.1593 21.1716 15.9778 21.3641C15.7944 21.5546 15.5731 21.6499 15.3139 21.6499H13.125C12.838 21.6499 12.6037 21.541 12.4222 21.3232C12.2389 21.1035 12.1611 20.8566 12.1889 20.5824Z" fill="#588157"/>
</svg>
