<svg width="20" height="21" viewBox="0 0 20 21" fill="none" xmlns="http://www.w3.org/2000/svg">
<path d="M1 7.86527C1 7.49587 1.18802 7.14932 1.50457 6.93525L9.30457 1.66039C9.72092 1.37883 10.2791 1.37883 10.6954 1.66039L18.4954 6.93525C18.812 7.14932 19 7.49587 19 7.86527V17.7374C19 18.6828 18.1941 19.4492 17.2 19.4492H2.8C1.80589 19.4492 1 18.6828 1 17.7374V7.86527Z" stroke="black" stroke-width="2"/>
<path d="M12.25 11.5742C12.25 12.8169 11.2426 13.8242 10 13.8242C8.75736 13.8242 7.75 12.8169 7.75 11.5742C7.75 10.3316 8.75736 9.32422 10 9.32422C11.2426 9.32422 12.25 10.3316 12.25 11.5742Z" stroke="black" stroke-width="2"/>
</svg>
