<svg width="20" height="20" viewBox="0 0 20 20" fill="none" xmlns="http://www.w3.org/2000/svg">
<path d="M17 8.44922V3.94922C17 2.84465 16.1046 1.94922 15 1.94922H3C1.89543 1.94922 1 2.84465 1 3.94922V11.7753C1 12.8799 1.89543 13.7753 3 13.7753H4.56522V17.9492L8.73913 13.7753H9M14.163 16.3405L16.7717 18.9492V16.3405H17C18.1046 16.3405 19 15.4451 19 14.3405V10.9492C19 9.84465 18.1046 8.94922 17 8.94922H11C9.89543 8.94922 9 9.84465 9 10.9492V14.3405C9 15.4451 9.89543 16.3405 11 16.3405H14.163Z" stroke="black" stroke-width="2" stroke-linecap="round" stroke-linejoin="round"/>
</svg>
