<svg width="25" height="19" viewBox="0 0 25 19" fill="none" xmlns="http://www.w3.org/2000/svg">
<path d="M15.4844 9.01953L14.125 7.66109V4.33203C14.125 3.81641 13.7031 3.39453 13.1875 3.39453H12.25C11.7344 3.39453 11.3125 3.81641 11.3125 4.33203V4.85047L9.4375 2.97734C9.18156 2.73547 8.94719 2.45703 8.5 2.45703C8.05281 2.45703 7.81844 2.73547 7.5625 2.97734L1.51562 9.01953C1.22312 9.32422 1 9.54641 1 9.95703C1 10.4848 1.405 10.8945 1.9375 10.8945H2.875V16.5195C2.875 17.0352 3.29688 17.457 3.8125 17.457H5.6875C6.20527 17.457 6.625 17.0373 6.625 16.5195V12.7695C6.625 12.2539 7.04688 11.832 7.5625 11.832H9.4375C9.95312 11.832 10.375 12.2539 10.375 12.7695V16.5195C10.375 17.0373 10.326 17.457 10.8438 17.457H13.1875C13.7031 17.457 14.125 17.0352 14.125 16.5195V10.8945H15.0625C15.595 10.8945 16 10.4848 16 9.95703C16 9.54641 15.7769 9.32422 15.4844 9.01953Z" stroke="black" stroke-width="2" stroke-linejoin="round"/>
<path d="M21.5 5.44116H20M20 5.44116H18.5M20 5.44116V6.94116M20 5.44116L20 3.94116M24 5.44141C24 7.65054 22.2091 9.44141 20 9.44141C17.7909 9.44141 16 7.65054 16 5.44141C16 3.23227 17.7909 1.44141 20 1.44141C22.2091 1.44141 24 3.23227 24 5.44141Z" stroke="black" stroke-linecap="round"/>
</svg>
