<svg width="20" height="21" viewBox="0 0 20 21" fill="none" xmlns="http://www.w3.org/2000/svg">
<path d="M18.533 17.2202C18.533 17.2202 17.3743 18.3582 17.0904 18.6919C16.6278 19.1855 16.0828 19.4186 15.3684 19.4186C15.2997 19.4186 15.2264 19.4186 15.1577 19.414C13.7975 19.3272 12.5336 18.797 11.5856 18.3445C8.99345 17.0923 6.71734 15.3144 4.82592 13.0612C3.26424 11.1828 2.22007 9.44608 1.52854 7.58139C1.10263 6.44337 0.946916 5.55672 1.01561 4.72035C1.06141 4.18562 1.26749 3.7423 1.64761 3.36296L3.20929 1.80447C3.43369 1.59424 3.67184 1.47998 3.9054 1.47998C4.19392 1.47998 4.42749 1.65365 4.57404 1.7999C4.57862 1.80447 4.5832 1.80905 4.58778 1.81362C4.86714 2.07413 5.13276 2.34378 5.41212 2.63171C5.55409 2.77796 5.70064 2.92421 5.84719 3.07503L7.09745 4.32273C7.5829 4.80719 7.5829 5.25508 7.09745 5.73954C6.96464 5.87208 6.83641 6.00462 6.7036 6.13259C6.3189 6.52564 6.6211 6.22405 6.22267 6.58054C6.21351 6.58968 6.20435 6.59425 6.19977 6.60339C5.80591 6.99644 5.87919 7.38035 5.96162 7.64086C5.9662 7.65457 5.97078 7.66828 5.97536 7.68199C6.30052 8.46809 6.75849 9.20848 7.45461 10.0906L7.45919 10.0951C8.72318 11.649 10.0559 12.8602 11.526 13.788C11.7137 13.9068 11.9061 14.0028 12.0893 14.0942C12.2541 14.1764 12.4098 14.2541 12.5427 14.3364C12.561 14.3455 12.5793 14.3593 12.5976 14.3684C12.7533 14.4461 12.8999 14.4827 13.051 14.4827C13.4311 14.4827 13.6693 14.245 13.7471 14.1673L14.6448 13.2715C14.8005 13.1161 15.0478 12.9287 15.3363 12.9287C15.6203 12.9287 15.8538 13.1069 15.9958 13.2623C16.0004 13.2669 16.0004 13.2669 16.005 13.2715L18.5284 15.7897C19.0001 16.2559 18.533 17.2202 18.533 17.2202Z" stroke="black" stroke-width="2" stroke-linecap="round" stroke-linejoin="round"/>
</svg>
