<svg width="25" height="17" viewBox="0 0 25 17" fill="none" xmlns="http://www.w3.org/2000/svg">
<path d="M9.08333 7.1874C8.47037 7.82907 7.73426 8.1499 6.875 8.1499C6.01574 8.1499 5.27963 7.82907 4.66667 7.1874C4.05556 6.54379 3.75 5.77087 3.75 4.86865C3.75 3.96643 4.05556 3.19351 4.66667 2.5499C5.27963 1.90824 6.01574 1.5874 6.875 1.5874C7.73426 1.5874 8.47037 1.90824 9.08333 2.5499C9.69444 3.19351 10 3.96643 10 4.86865C10 5.77087 9.69444 6.54379 9.08333 7.1874ZM11.875 2.8999H20.625C21.8231 2.8999 22.8519 3.35101 23.7111 4.25324C24.5704 5.15546 25 6.2356 25 7.49365V15.3687C25 15.5592 24.9417 15.7167 24.825 15.8412C24.7065 15.9637 24.5565 16.0249 24.375 16.0249H23.125C22.9435 16.0249 22.7935 15.9637 22.675 15.8412C22.5583 15.7167 22.5 15.5592 22.5 15.3687V13.3999H2.5V15.3687C2.5 15.5592 2.44167 15.7167 2.325 15.8412C2.20648 15.9637 2.05648 16.0249 1.875 16.0249H0.625C0.443519 16.0249 0.293519 15.9637 0.175 15.8412C0.0583333 15.7167 0 15.5592 0 15.3687V0.931152C0 0.740597 0.0583333 0.583097 0.175 0.458652C0.293519 0.336152 0.443519 0.274902 0.625 0.274902H1.875C2.05648 0.274902 2.20648 0.336152 2.325 0.458652C2.44167 0.583097 2.5 0.740597 2.5 0.931152V9.4624H11.25V3.55615C11.25 3.3656 11.3083 3.2081 11.425 3.08365C11.5435 2.96115 11.6935 2.8999 11.875 2.8999Z" fill="#588157"/>
</svg>
