<svg width="18" height="20" viewBox="0 0 18 20" fill="none" xmlns="http://www.w3.org/2000/svg">
<path d="M1.875 0.962402H15.625C16.1454 0.962402 16.588 1.15393 16.9528 1.53699C17.3176 1.92004 17.5 2.38476 17.5 2.93115V17.3687C17.5 17.915 17.3176 18.3798 16.9528 18.7628C16.588 19.1459 16.1454 19.3374 15.625 19.3374H1.875C1.35463 19.3374 0.912037 19.1459 0.547222 18.7628C0.182407 18.3798 0 17.915 0 17.3687V2.93115C0 2.38476 0.182407 1.92004 0.547222 1.53699C0.912037 1.15393 1.35463 0.962402 1.875 0.962402ZM7.5 12.7749H9.375C10.4176 12.7749 11.3028 12.3918 12.0306 11.6257C12.7602 10.8616 13.125 9.93212 13.125 8.8374C13.125 7.74462 12.7602 6.81518 12.0306 6.04907C11.3028 5.28296 10.4176 4.8999 9.375 4.8999H5.625C5.44352 4.8999 5.29352 4.96115 5.175 5.08365C5.05833 5.2081 5 5.3656 5 5.55615V14.7437C5 14.9342 5.05833 15.0917 5.175 15.2162C5.29352 15.3387 5.44352 15.3999 5.625 15.3999H6.875C7.05648 15.3999 7.20648 15.3387 7.325 15.2162C7.44167 15.0917 7.5 14.9342 7.5 14.7437V12.7749ZM7.5 7.5249H9.375C9.71389 7.5249 10.0065 7.65518 10.2528 7.91574C10.5009 8.17435 10.625 8.48157 10.625 8.8374C10.625 9.19324 10.5009 9.50046 10.2528 9.75907C10.0065 10.0196 9.71389 10.1499 9.375 10.1499H7.5V7.5249Z" fill="#588157"/>
</svg>
