<svg width="25" height="22" viewBox="0 0 25 22" fill="none" xmlns="http://www.w3.org/2000/svg">
<path d="M19.8056 9.91907L24.2972 11.7653C24.7657 11.9559 25 12.2981 25 12.792C25 13.9937 24.8306 15.1214 24.4917 16.1753C24.1528 17.2273 23.7037 18.1023 23.1444 18.8003C22.5852 19.4964 22.025 20.0768 21.4639 20.5416C20.9046 21.0063 20.3519 21.3485 19.8056 21.5682C19.5185 21.6771 19.2315 21.6771 18.9444 21.5682C17.5648 20.9946 16.3546 19.9213 15.3139 18.3482C14.2713 16.7752 13.75 14.9231 13.75 12.792C13.75 12.2981 13.9843 11.9559 14.4528 11.7653L18.9444 9.91907C19.2315 9.81018 19.5185 9.81018 19.8056 9.91907ZM19.375 11.847V19.5995C20.2343 19.1892 21.0481 18.4513 21.8167 17.3857C22.5852 16.3182 23.0213 14.9912 23.125 13.4045L19.375 11.847ZM12.2861 9.61282C11.3083 10.6375 10.1296 11.1499 8.75 11.1499C7.37037 11.1499 6.19167 10.6375 5.21389 9.61282C4.23796 8.58615 3.75 7.34851 3.75 5.8999C3.75 4.45129 4.23796 3.21365 5.21389 2.18699C6.19167 1.16226 7.37037 0.649902 8.75 0.649902C10.1296 0.649902 11.3083 1.16226 12.2861 2.18699C13.262 3.21365 13.75 4.45129 13.75 5.8999C13.75 7.34851 13.262 8.58615 12.2861 9.61282ZM12.5 12.792C12.5 14.6509 12.8583 16.325 13.575 17.8145C14.2898 19.3059 15.2204 20.5299 16.3667 21.4866C16.1333 21.5955 15.8861 21.6499 15.625 21.6499H1.875C1.35463 21.6499 0.912037 21.4584 0.547222 21.0753C0.182407 20.6923 0 20.2275 0 19.6812V17.9574C0 16.4543 0.513889 15.1623 1.54167 14.0812C2.5713 13.002 3.80185 12.4624 5.23333 12.4624H5.89722C6.81019 12.8999 7.76111 13.1187 8.75 13.1187C9.73889 13.1187 10.6898 12.8999 11.6028 12.4624H12.2667C12.2926 12.4624 12.338 12.4692 12.4028 12.4828C12.4676 12.4964 12.513 12.5032 12.5389 12.5032C12.5389 12.5032 12.5324 12.5441 12.5194 12.6257C12.5065 12.7074 12.5 12.7628 12.5 12.792Z" fill="#588157"/>
</svg>
