<svg width="25" height="20" viewBox="0 0 25 20" fill="none" xmlns="http://www.w3.org/2000/svg">
<path d="M5.50833 8.05865C5.01389 8.57782 4.42778 8.8374 3.75 8.8374C3.07222 8.8374 2.48611 8.57782 1.99167 8.05865C1.49722 7.53949 1.25 6.92407 1.25 6.2124C1.25 5.50074 1.49722 4.88532 1.99167 4.36615C2.48611 3.84699 3.07222 3.5874 3.75 3.5874C4.42778 3.5874 5.01389 3.84699 5.50833 4.36615C6.00278 4.88532 6.25 5.50074 6.25 6.2124C6.25 6.92407 6.00278 7.53949 5.50833 8.05865ZM23.0083 8.05865C22.5139 8.57782 21.9278 8.8374 21.25 8.8374C20.5722 8.8374 19.9861 8.57782 19.4917 8.05865C18.9972 7.53949 18.75 6.92407 18.75 6.2124C18.75 5.50074 18.9972 4.88532 19.4917 4.36615C19.9861 3.84699 20.5722 3.5874 21.25 3.5874C21.9278 3.5874 22.5139 3.84699 23.0083 4.36615C23.5028 4.88532 23.75 5.50074 23.75 6.2124C23.75 6.92407 23.5028 7.53949 23.0083 8.05865ZM20 10.1499H22.5C23.1778 10.1499 23.7639 10.4095 24.2583 10.9287C24.7528 11.4478 25 12.0632 25 12.7749V14.0874C25 14.4432 24.8759 14.7505 24.6278 15.0091C24.3815 15.2696 24.0889 15.3999 23.75 15.3999H21.1722C21.0426 14.4432 20.7167 13.5682 20.1944 12.7749C19.6741 11.9816 19.0231 11.3662 18.2417 10.9287C18.7361 10.4095 19.3222 10.1499 20 10.1499ZM15.5861 8.79657C14.7269 9.69879 13.6981 10.1499 12.5 10.1499C11.3019 10.1499 10.2731 9.69879 9.41389 8.79657C8.55463 7.89435 8.125 6.81421 8.125 5.55615C8.125 4.2981 8.55463 3.21796 9.41389 2.31574C10.2731 1.41351 11.3019 0.962402 12.5 0.962402C13.6981 0.962402 14.7269 1.41351 15.5861 2.31574C16.4454 3.21796 16.875 4.2981 16.875 5.55615C16.875 6.81421 16.4454 7.89435 15.5861 8.79657ZM15.1556 11.4624H15.5083C16.7583 11.4624 17.8194 11.9203 18.6917 12.8362C19.5639 13.752 20 14.8662 20 16.1787V17.3687C20 17.915 19.8176 18.3798 19.4528 18.7628C19.088 19.1459 18.6454 19.3374 18.125 19.3374H6.875C6.35463 19.3374 5.91204 19.1459 5.54722 18.7628C5.18241 18.3798 5 17.915 5 17.3687V16.1787C5 14.8662 5.43611 13.752 6.30833 12.8362C7.18056 11.9203 8.24167 11.4624 9.49167 11.4624H9.84444C10.7037 11.8999 11.5889 12.1187 12.5 12.1187C13.4111 12.1187 14.2963 11.8999 15.1556 11.4624ZM6.75833 10.9287C5.97685 11.3662 5.32593 11.9816 4.80556 12.7749C4.28333 13.5682 3.95741 14.4432 3.82778 15.3999H1.25C0.911111 15.3999 0.618519 15.2696 0.372222 15.0091C0.124074 14.7505 0 14.4432 0 14.0874V12.7749C0 12.0632 0.247222 11.4478 0.741667 10.9287C1.23611 10.4095 1.82222 10.1499 2.5 10.1499H5C5.67778 10.1499 6.26389 10.4095 6.75833 10.9287Z" fill="#588157"/>
</svg>
