<svg width="25" height="20" viewBox="0 0 25 20" fill="none" xmlns="http://www.w3.org/2000/svg">
<path d="M24.8056 6.0081C24.9352 6.11699 25 6.26671 25 6.45727C25 6.64977 24.9352 6.81407 24.8056 6.95018L23.4778 8.34435C23.1907 8.64574 22.9037 8.64574 22.6167 8.34435C19.7519 5.61046 16.3796 4.24352 12.5 4.24352C8.62037 4.24352 5.24815 5.61046 2.38333 8.34435C2.0963 8.64574 1.80926 8.64574 1.52222 8.34435L0.194444 6.95018C0.0648148 6.81407 0 6.64977 0 6.45727C0 6.26671 0.0648148 6.11699 0.194444 6.0081C2.46111 3.79338 5.0787 2.29615 8.04722 1.51643C11.0157 0.73671 13.9843 0.73671 16.9528 1.51643C19.9213 2.29615 22.5389 3.79338 24.8056 6.0081ZM10.7222 14.8456C11.2037 14.34 11.7963 14.0873 12.5 14.0873C13.2037 14.0873 13.7963 14.34 14.2778 14.8456C14.7593 15.3512 15 15.9734 15 16.7123C15 17.4512 14.7593 18.0734 14.2778 18.5789C13.7963 19.0845 13.2037 19.3373 12.5 19.3373C11.7963 19.3373 11.2037 19.0845 10.7222 18.5789C10.2407 18.0734 10 17.4512 10 16.7123C10 15.9734 10.2407 15.3512 10.7222 14.8456ZM20.4306 10.6427C20.5602 10.7788 20.625 10.9431 20.625 11.1356C20.625 11.3262 20.5602 11.4895 20.4306 11.6256L19.1028 13.0198C18.8157 13.2939 18.5287 13.2939 18.2417 13.0198C16.6009 11.5439 14.687 10.806 12.5 10.806C10.313 10.806 8.39907 11.5439 6.75833 13.0198C6.4713 13.2939 6.18426 13.2939 5.89722 13.0198L4.56944 11.6256C4.43982 11.4895 4.375 11.3262 4.375 11.1356C4.375 10.9431 4.43982 10.7788 4.56944 10.6427C6.83611 8.56407 9.47963 7.52477 12.5 7.52477C15.5204 7.52477 18.1639 8.56407 20.4306 10.6427Z" fill="#588157"/>
</svg>
